<svg xmlns="http://www.w3.org/2000/svg" viewBox="0 0 154.36 143.03"><defs><style>.cls-1{stroke:#000;stroke-miterlimit:10;}.cls-2{fill:#fff;}</style></defs><title>Monte_Roza</title><g id="Layer_2" data-name="Layer 2"><g id="Layer_2-2" data-name="Layer 2"><path d="M151.6,90.49a64.18,64.18,0,0,1-60,24.09,64,64,0,0,0,28-53,63.71,63.71,0,0,0-3.18-20,1.05,1.05,0,0,1,.08-.18A93.38,93.38,0,0,0,151.6,90.49Z"/><path class="cls-1" d="M116.4,41.65A93.44,93.44,0,0,1,91.24,75.94,93.89,93.89,0,0,1,73.7,87.85,92.7,92.7,0,0,0,82.31,63.9Q80.49,61.05,78.93,58A90.52,90.52,0,0,1,72.7,43.24a93.62,93.62,0,0,1-27.94,29c-1.11.76-2.23,1.48-3.38,2.16.87-.72,28.46-24.11,31.23-40.15a135.46,135.46,0,0,0,8.3,22.89,100.61,100.61,0,0,0,8.53,15S106.74,61.46,116.4,41.65Z"/><path class="cls-2" d="M154.36,71.36a70.22,70.22,0,0,1-2.57,18.86,2.22,2.22,0,0,1-.19.27,93.38,93.38,0,0,1-35.12-49,1.05,1.05,0,0,0-.08.18c-9.66,19.81-27,30.48-27,30.48a100.61,100.61,0,0,1-8.53-15,135.46,135.46,0,0,1-8.3-22.89c-2.77,16-30.36,39.43-31.23,40.15v0c-.15-.24-.29-.47-.45-.7v0a18.45,18.45,0,0,0-14.48-8.28.11.11,0,0,0-.11,0,26,26,0,0,0-7.89,1.38.2.2,0,0,0-.14.06A23.79,23.79,0,0,0,14,68.75,70.09,70.09,0,0,1,53.1,8.41a69,69,0,0,1,15.84-5.6c1.65-.36,3.33-.67,5-.92,1.26-.18,2.52-.32,3.77-.45,2.12-.2,4.26-.29,6.44-.29.64,0,1.31,0,1.95,0a69.84,69.84,0,0,1,26.7,6.09,68.93,68.93,0,0,1,10.63,5.93A70.05,70.05,0,0,1,154.36,71.36Z"/><path d="M154.36,71.36a70.51,70.51,0,0,1-2.51,18.88h0l-.2.28,0,0-.05,0a95.58,95.58,0,0,1-11.75-9.88A92.86,92.86,0,0,1,129.75,69a96.57,96.57,0,0,1-8-13.11,92.49,92.49,0,0,1-5.88-14.27l1.3,0-.05.13,0,.14a76.55,76.55,0,0,1-5.11,9c-.92,1.48-2,2.84-3,4.26s-2.13,2.74-3.29,4a81.26,81.26,0,0,1-7.27,7.46,70.36,70.36,0,0,1-8.22,6.53l-1,.7-.77-1.07A106.7,106.7,0,0,1,77.91,54.58q-2.18-4.8-4-9.75c-1.21-3.31-2.31-6.6-3.26-10.08l3.92-.13c-.8,4.75-3,8.79-5.29,12.57a93.75,93.75,0,0,1-7.87,10.59c-2.82,3.35-5.79,6.55-8.87,9.62s-6.24,6-9.6,8.91l.16-.15,0,0L41,78.32l-1.67-2.59-.38-.59-.44-.67v-.74l.41,1.35a16.08,16.08,0,0,0-12.57-7.14l-1-.26a2.43,2.43,0,0,0,1.06.25,2.35,2.35,0,0,0,1.07-.25L26.38,68a23.42,23.42,0,0,0-7.14,1.22l-.8.13a2.24,2.24,0,0,0,1.61-.67l-1,.6a21.58,21.58,0,0,0-3.82,1.67l-4,2.21.33-4.44.26-3.52c.05-.58.07-1.17.14-1.75l.25-1.75c.18-1.16.31-2.33.53-3.48l.75-3.44a67,67,0,0,1,4.62-13.28l.73-1.6.83-1.55c.56-1,1.07-2.08,1.69-3.08l1.86-3c.6-1,1.34-1.92,2-2.88s1.36-1.9,2.13-2.79,1.48-1.81,2.24-2.69c1.62-1.69,3.19-3.43,4.95-5s3.55-3,5.36-4.5c1-.69,1.91-1.34,2.86-2s1.94-1.29,2.94-1.89,2-1.24,3-1.76l3.1-1.6a64.54,64.54,0,0,1,6.4-2.75A66,66,0,0,1,71.69.92C72.83.73,74,.53,75.12.44S77.41.15,78.57.15L82,.05C83.2,0,84.35,0,85.5,0a70.65,70.65,0,0,1,26.72,6.21A72.28,72.28,0,0,1,134.47,22,71.06,71.06,0,0,1,154.36,71.36Zm0,0A77.76,77.76,0,0,0,153,57.83a73.58,73.58,0,0,0-3.95-13,64.27,64.27,0,0,0-6.43-11.95c-1.22-1.9-2.64-3.67-4-5.45l-2.23-2.56c-.74-.86-1.57-1.63-2.35-2.45A68.87,68.87,0,0,0,85.46,2.31c-1.12,0-2.23.06-3.34.13l-3.34.21c-1.11,0-2.22.25-3.32.38s-2.21.35-3.3.57A63,63,0,0,0,59.39,7.35a60.92,60.92,0,0,0-6,2.83l-2.91,1.61c-1,.52-1.87,1.19-2.81,1.77s-1.86,1.19-2.73,1.88l-2.65,2c-1.67,1.45-3.39,2.83-4.93,4.42s-3,3.19-4.52,4.81l-2.07,2.58c-.7.84-1.33,1.75-2,2.66S27.52,33.68,27,34.64l-1.69,2.83c-.56.94-1,2-1.53,2.92L23,41.85l-.65,1.51a69.38,69.38,0,0,0-4.15,12.47L17.54,59c-.2,1.08-.31,2.17-.47,3.26l-.23,1.62c-.06.55-.08,1.1-.12,1.64l-.22,3.28-3.66-2.23a25.61,25.61,0,0,1,4.7-2.07l-1,.6a2.63,2.63,0,0,1,1.89-.78l-.79.13A28.81,28.81,0,0,1,26.28,63l-1.07.26a2.67,2.67,0,0,1,1.18-.27,2.58,2.58,0,0,1,1.16.27l-1-.26A21,21,0,0,1,43,72.38l.41.62v.75l-.43-1.39.52.81-3.81-.45,0,0,.07-.07.09-.08C43,69.86,46.15,66.94,49.18,64s6-6,8.77-9.19a89.71,89.71,0,0,0,7.68-9.94,48.34,48.34,0,0,0,3.05-5.35,22.9,22.9,0,0,0,1.95-5.56l1.78-9.13,2.15,9c.77,3.24,1.76,6.57,2.83,9.81s2.28,6.46,3.59,9.63a103,103,0,0,0,9.56,18.11L88.74,71a70.64,70.64,0,0,0,8.07-6,82.42,82.42,0,0,0,7.31-7.05c1.17-1.22,2.23-2.54,3.33-3.83s2.12-2.65,3.06-4.06a75.35,75.35,0,0,0,5.28-8.69l-.05.13.09-.23.75-1.92.55,1.94a91.14,91.14,0,0,0,5.35,14.27,90.16,90.16,0,0,0,7.71,13.19A94.06,94.06,0,0,0,140,80.48a92,92,0,0,0,11.64,10h-.08l.19-.26h0A70.18,70.18,0,0,0,154.36,71.36Z"/><path class="cls-2" d="M151.7,90.56v0a70.21,70.21,0,0,1-113,34.24c-.72-.61-1.42-1.22-2.1-1.87q-2.46-2.27-4.67-4.74a67.65,67.65,0,0,1-8.14-11.08c-.09-.15-.18-.31-.25-.45-.43-.81-.88-1.6-1.35-2.39l-.07-.13c-.49-.83-1-1.63-1.47-2.42-.88-1.42-1.8-2.81-2.75-4.15a92.73,92.73,0,0,0-9.06-11C8.26,86,7.65,85.37,7,84.76,5.67,83.41,4.25,82.1,2.8,80.83A26.53,26.53,0,0,1,14,68.77v0a23.79,23.79,0,0,1,4.26-1.86.2.2,0,0,1,.14-.06,26,26,0,0,1,7.89-1.38.11.11,0,0,1,.11,0,18.45,18.45,0,0,1,14.48,8.28v0c.16.23.3.46.45.7v0c1.15-.68,2.27-1.4,3.38-2.16a93.62,93.62,0,0,0,27.94-29A90.52,90.52,0,0,0,78.93,58q1.56,3,3.38,5.87A92.7,92.7,0,0,1,73.7,87.85,93.89,93.89,0,0,0,91.24,75.94,93.44,93.44,0,0,0,116.4,41.65a64.3,64.3,0,0,1-5.12,51.57,64.44,64.44,0,0,1-19.65,21.36,64.17,64.17,0,0,0,60-24.09Z"/><path d="M151.7,90.56v0h0a69.54,69.54,0,0,1-21.86,35.05A72.28,72.28,0,0,1,112.11,137a70.36,70.36,0,0,1-20.41,5.53A71.1,71.1,0,0,1,50.36,135a73,73,0,0,1-24.31-20.62C25,112.92,24,111.44,23,109.93l-.7-1.14-.34-.56-.39-.68-1.23-2.17-.08-.13-.92-1.49c-.31-.52-.63-1-1-1.55l-2.08-3.1c-1.42-2-2.94-4-4.53-5.92s-3.26-3.74-5-5.54l-1.3-1.31L4,85.08,1.27,82.56,0,81.39l.7-1.54A28.93,28.93,0,0,1,12.89,66.67l-1.24,2.1V67.35l1.22-.68a25.82,25.82,0,0,1,4.69-2.07l-1,.59a2.58,2.58,0,0,1,1.84-.76l-.77.13A28.41,28.41,0,0,1,26.28,63l-1,.26a2.52,2.52,0,0,1,2.27,0l-1-.25a20.79,20.79,0,0,1,9.31,2.71A21.12,21.12,0,0,1,43,72.38l.4.61v.76l-.43-1.39.52.81-3.81-.45v0l.2-.19.29-.18A98.9,98.9,0,0,0,49,66.14a88,88,0,0,0,8.12-7.2A93.78,93.78,0,0,0,70.58,42l2.84-4.59,1.64,5.13a89.57,89.57,0,0,0,4,10.34c.79,1.67,1.59,3.36,2.53,5l2.75,4.81.52.9-.19.91A95.29,95.29,0,0,1,75.83,89l-3.24-3.23a92.83,92.83,0,0,0,13.19-8.35A93,93,0,0,0,97.39,66.91a93.3,93.3,0,0,0,9.67-12.3,95.75,95.75,0,0,0,7.45-13.77l2.2-5L118.36,41a66.4,66.4,0,0,1-.55,41.8,65.75,65.75,0,0,1-25.5,32.78l-.5-2.19A63.3,63.3,0,0,0,124.63,110a63.84,63.84,0,0,0,14.72-8,64.7,64.7,0,0,0,12.24-11.55h0Zm0,0-.11-.07h0a65,65,0,0,1-11.81,12.15,64.12,64.12,0,0,1-14.68,8.61,65,65,0,0,1-33.65,4.52l-3-.4L91,113.59a64.18,64.18,0,0,0,14.42-14.07,62.63,62.63,0,0,0,9.08-57.23l3.84.16c-1.06,2.52-2.21,5-3.48,7.42s-2.66,4.78-4.13,7.09a96.71,96.71,0,0,1-10,13A96.21,96.21,0,0,1,74.82,90L68,93.57l3.57-6.83A90.22,90.22,0,0,0,79.92,63.4l.32,1.81-2.93-5.09c-1-1.69-1.84-3.44-2.68-5.21A92.83,92.83,0,0,1,70.34,44l4.47.54A95,95,0,0,1,60.65,62.46,93.43,93.43,0,0,1,52.07,70a103.13,103.13,0,0,1-9.44,6.5l.48-.37v0l-2.16,2.15-1.66-2.6-.37-.59-.44-.68v-.73l.41,1.35a16,16,0,0,0-12.56-7.22l-1-.25a2.31,2.31,0,0,0,2.05,0l-1,.25a23.51,23.51,0,0,0-7.16,1.24l-.78.13A2.15,2.15,0,0,0,20,68.58l-1,.59a22,22,0,0,0-3.83,1.67l1.23-2.09V70.2l-1.24.67A24.14,24.14,0,0,0,4.89,81.8l-.57-2.71,2.86,2.68L8.6,83.11,10,84.52c1.79,1.84,3.54,3.81,5.18,5.82s3.24,4.11,4.7,6.26,2.84,4.27,4.25,6.72l-.07-.13,1.32,2.38.25.45.33.56.66,1.08c.88,1.43,1.83,2.83,2.82,4.19A68.52,68.52,0,0,0,36,119.56a68.44,68.44,0,0,0,55.45,20.17,68.5,68.5,0,0,0,37.43-15.28,68.62,68.62,0,0,0,13.89-15.21,69.26,69.26,0,0,0,9-18.66h0Z"/><path d="M116.75,35.56S130,73.35,151.6,90.49L123.78,72.4Z"/></g></g></svg>